<?xml version="1.0" encoding="UTF-8" standalone="no"?>
<svg width="24px" height="24px" viewBox="0 0 24 24" version="1.1" xmlns="http://www.w3.org/2000/svg" xmlns:xlink="http://www.w3.org/1999/xlink" xmlns:sketch="http://www.bohemiancoding.com/sketch/ns">
    <!-- Generator: Sketch 3.5.1 (25234) - http://www.bohemiancoding.com/sketch -->
    <title>phone-red</title>
    <desc>Created with Sketch.</desc>
    <defs></defs>
    <g id="Page-1" stroke="none" stroke-width="1" fill="none" fill-rule="evenodd" sketch:type="MSPage">
        <g id="All-Calls" sketch:type="MSArtboardGroup" transform="translate(-236.000000, -346.000000)" stroke="#4A4A4A" fill="#F8815A">
            <path d="M252.753542,360.173372 C252.360908,360.173372 252.018132,360.260624 251.737678,360.441361 C250.908783,360.971106 250.24816,361.382438 249.930313,361.382438 C249.755809,361.382438 249.56884,361.22663 249.157508,360.871389 L249.088953,360.809066 C247.948443,359.818132 247.705384,359.562608 247.262891,359.101418 L247.150709,358.983004 C247.06969,358.901984 247.001134,358.827197 246.932579,358.758641 C246.546177,358.359775 246.265724,358.073089 245.274789,356.951276 L245.231163,356.901418 C244.757508,356.36544 244.445894,356.016432 244.427197,355.760908 C244.4085,355.511616 244.62663,355.106517 245.181304,354.352409 C245.854392,353.442494 245.879321,352.320681 245.262324,351.018132 C244.769973,349.989803 243.966007,349.0051 243.255525,348.138811 L243.193202,348.064024 C242.582438,347.316149 241.871956,346.942211 241.080455,346.942211 C240.201701,346.942211 239.472523,347.415865 239.08612,347.665157 C239.054959,347.683854 239.023797,347.708783 238.992636,347.72748 C238.126347,348.275922 237.496885,349.03003 237.260058,349.796602 C236.904817,350.949576 236.66799,352.445327 238.369406,355.555242 C239.840228,358.247593 241.173939,360.054959 243.292919,362.23003 C245.287253,364.274222 246.172239,364.934845 248.154109,366.368273 C250.360341,367.963741 252.479321,368.879888 253.962608,368.879888 C255.339945,368.879888 256.424364,368.879888 257.969973,367.016432 C259.59037,365.059491 258.917282,363.862891 257.945044,362.859491 C257.035129,361.924647 254.448726,360.173372 252.753542,360.173372 Z" id="phone-red" sketch:type="MSShapeGroup" transform="translate(247.976516, 357.911049) rotate(-270.000000) translate(-247.976516, -357.911049) "></path>
        </g>
    </g>
</svg>