<?xml version="1.0" encoding="UTF-8" standalone="no"?>
<svg width="24px" height="24px" viewBox="0 0 24 24" version="1.1" xmlns="http://www.w3.org/2000/svg" xmlns:xlink="http://www.w3.org/1999/xlink" xmlns:sketch="http://www.bohemiancoding.com/sketch/ns">
    <!-- Generator: Sketch 3.5.1 (25234) - http://www.bohemiancoding.com/sketch -->
    <title>phone-green</title>
    <desc>Created with Sketch.</desc>
    <defs></defs>
    <g id="Page-1" stroke="none" stroke-width="1" fill="none" fill-rule="evenodd" sketch:type="MSPage">
        <g id="All-Calls" sketch:type="MSArtboardGroup" transform="translate(-234.000000, -301.000000)" stroke="#4A4A4A" fill="#8DC640">
            <path d="M250.74731,315.231161 C250.354675,315.231161 250.011899,315.318414 249.731446,315.49915 C248.902551,316.028895 248.241928,316.440227 247.924081,316.440227 C247.749576,316.440227 247.562608,316.284419 247.151276,315.929178 L247.082721,315.866856 C245.942211,314.875921 245.699151,314.620397 245.256658,314.159207 L245.144477,314.040793 C245.063457,313.959773 244.994902,313.884986 244.926347,313.816431 C244.539945,313.417564 244.259491,313.130878 243.268557,312.009065 L243.22493,311.959207 C242.751276,311.423229 242.439661,311.074221 242.420964,310.818697 C242.402268,310.569405 242.620398,310.164306 243.175072,309.410198 C243.84816,308.500283 243.873089,307.37847 243.256092,306.075921 C242.763741,305.047592 241.959775,304.06289 241.249293,303.196601 L241.18697,303.121813 C240.576205,302.373938 239.865724,302 239.074222,302 C238.195469,302 237.46629,302.473654 237.079888,302.722946 C237.048726,302.741643 237.017565,302.766572 236.986404,302.785269 C236.120115,303.333711 235.490653,304.087819 235.253826,304.854391 C234.898585,306.007365 234.661758,307.503116 236.363174,310.613031 C237.833996,313.305382 239.167707,315.112748 241.286687,317.287819 C243.281021,319.332011 244.166007,319.992635 246.147877,321.426062 C248.354109,323.02153 250.473089,323.937677 251.956375,323.937677 C253.333712,323.937677 254.418132,323.937677 255.963741,322.074221 C257.584137,320.11728 256.911049,318.92068 255.938811,317.91728 C255.028896,316.982436 252.442494,315.231161 250.74731,315.231161 Z" id="phone-green" sketch:type="MSShapeGroup" transform="translate(245.970283, 312.968839) rotate(-90.000000) translate(-245.970283, -312.968839) "></path>
        </g>
    </g>
</svg>